<svg width="24" height="24" viewBox="0 0 315 315" fill="none" xmlns="http://www.w3.org/2000/svg">
  <circle cx="157.5" cy="157.5" r="157.5" fill="#C8C8C8" opacity="0.4"/>
  <circle cx="150" cy="113" r="75" fill="#C8C8C8" opacity="0.9"/>
  <path d="M166.924 118.934C179.528 121.854 191.162 127.984 200.697 136.729C210.231 145.475 217.341 156.538 221.336 168.843C225.33 181.149 226.074 194.279 223.494 206.957C220.913 219.635 215.098 231.43 206.611 241.195C198.125 250.961 187.256 258.365 175.062 262.689C162.868 267.012 149.763 268.107 137.02 265.868C124.278 263.629 112.331 258.132 102.341 249.911C92.3514 241.689 84.6582 231.023 80.0093 218.95L90.5079 214.907C94.4595 225.17 100.999 234.236 109.49 241.224C117.981 248.212 128.136 252.885 138.967 254.788C149.799 256.691 160.938 255.76 171.303 252.085C181.668 248.411 190.906 242.117 198.119 233.816C205.333 225.515 210.276 215.49 212.47 204.713C214.663 193.937 214.031 182.777 210.635 172.317C207.24 161.857 201.196 152.453 193.092 145.02C184.988 137.586 175.099 132.376 164.385 129.894L166.924 118.934Z" fill="#303030"/>
  <circle cx="165" cy="123" r="15" fill="#303030"/>
</svg>
